<svg width="69" height="69" viewBox="0 0 69 69" fill="none" xmlns="http://www.w3.org/2000/svg">
<rect width="69" height="69" rx="4" fill="white"/>
<rect x="2.00002" y="2" width="65" height="65" rx="4" fill="white"/>
<line x1="18.5" y1="2" x2="18.5" y2="67" stroke="#E5E7EB"/>
<line x1="34.5" y1="2" x2="34.5" y2="67" stroke="#E5E7EB"/>
<line x1="50.5" y1="2" x2="50.5" y2="67" stroke="#E5E7EB"/>
<rect x="66.5" y="2.5" width="64" height="64" rx="3.5" transform="rotate(90 66.5 2.5)" stroke="#E5E7EB"/>
<line x1="67" y1="18.5" x2="2" y2="18.5" stroke="#E5E7EB"/>
<line x1="67" y1="34.5" x2="2" y2="34.5" stroke="#E5E7EB"/>
<line x1="67" y1="50.5" x2="2" y2="50.5" stroke="#E5E7EB"/>
<circle cx="10.5" cy="10.5" r="5.5" fill="#FB923C"/>
<circle cx="26.5" cy="10.5" r="5.5" fill="#FB923C"/>
<circle cx="42.5" cy="10.5" r="5.5" fill="#F87171"/>
<circle cx="58.5" cy="10.5" r="5.5" fill="#F87171"/>
<circle cx="10.5" cy="26.5" r="5.5" fill="#FB923C"/>
<circle cx="26.5" cy="26.5" r="5.5" fill="#22C55E"/>
<circle cx="42.5" cy="26.5" r="5.5" fill="#F87171"/>
<circle cx="58.5" cy="26.5" r="5.5" fill="#3B82F6"/>
<circle cx="10.5" cy="42.5" r="5.5" fill="#22C55E"/>
<circle cx="26.5" cy="42.5" r="5.5" fill="#22C55E"/>
<circle cx="42.5" cy="42.5" r="5.5" fill="#F87171"/>
<circle cx="58.5" cy="42.5" r="5.5" fill="#3B82F6"/>
<circle cx="10.5" cy="58.5" r="5.5" fill="#22C55E"/>
<circle cx="26.5" cy="58.5" r="5.5" fill="#3B82F6"/>
<circle cx="42.5" cy="58.5" r="5.5" fill="#3B82F6"/>
<circle cx="58.5" cy="58.5" r="5.5" fill="#3B82F6"/>
</svg>
